<svg width="61" height="60" viewBox="0 0 61 60" fill="none" xmlns="http://www.w3.org/2000/svg">
<$1$2>
<path d="M51.4371 24.8147C51.4372 23.2763 50.3567 21.9863 48.9149 21.6615C48.9226 21.5806 48.9287 21.4992 48.9311 21.4169C48.9579 20.4633 48.6017 19.5567 47.9282 18.864C47.2432 18.1596 46.2866 17.7557 45.3034 17.7557C44.1154 17.7557 43.0573 18.3338 42.3948 19.2239C41.7328 18.3338 40.6738 17.7557 39.4831 17.7557C38.5086 17.7557 37.5586 18.1544 36.8767 18.8498C36.1995 19.5402 35.8367 20.4483 35.8552 21.4064C35.8568 21.4923 35.8627 21.5773 35.8703 21.6618C34.4291 21.987 33.3492 23.2766 33.3492 24.8147C33.3492 26.1163 34.1229 27.2399 35.2341 27.7519C34.4513 28.7206 33.9945 29.9464 33.9945 31.2423C33.9945 34.3028 36.4843 36.7927 39.5448 36.7927C40.5529 36.7927 41.537 36.5172 42.3932 36.0051C43.254 36.5202 44.2384 36.7924 45.2415 36.7927C48.302 36.7927 50.7919 34.3028 50.7919 31.2423C50.7919 29.9462 50.3351 28.7206 49.5523 27.7519C50.6636 27.2399 51.4371 26.1163 51.4371 24.8147ZM45.3034 20.0996C45.6574 20.0996 46.0016 20.2448 46.2478 20.4979C46.4762 20.7328 46.597 21.0357 46.5883 21.3508C46.568 22.0692 45.9856 22.6602 45.2898 22.6682C45.1034 22.668 44.9191 22.6279 44.7495 22.5505C44.7285 22.5408 44.7079 22.5304 44.6868 22.5209C44.58 22.4646 44.4823 22.3927 44.3966 22.3077C44.1518 22.0648 44.0177 21.7384 44.0191 21.3885C44.022 20.6778 44.5982 20.0996 45.3034 20.0996ZM38.5498 20.491C38.6712 20.3665 38.8163 20.2677 38.9766 20.2005C39.1369 20.1332 39.3091 20.0988 39.4829 20.0994C40.1903 20.0994 40.7664 20.6762 40.7672 21.3851C40.7681 21.5579 40.7343 21.7291 40.6678 21.8885C40.6013 22.048 40.5035 22.1925 40.3801 22.3135C40.2964 22.3959 40.2013 22.466 40.0978 22.5217C40.0595 22.5391 40.0221 22.5577 39.9843 22.5758C39.8315 22.6389 39.6675 22.6704 39.5023 22.6683C38.7969 22.6567 38.212 22.0704 38.1983 21.3613C38.192 21.0374 38.3169 20.7285 38.5498 20.491ZM35.693 24.8148C35.6929 24.3245 36.0918 23.9257 36.5818 23.9257C37.0722 23.9257 37.4709 24.3245 37.4709 24.8148C37.4709 24.9155 37.4534 25.0118 37.4224 25.1022C37.3931 25.1611 37.3649 25.2207 37.3377 25.2808C37.1809 25.5341 36.9012 25.7038 36.582 25.7038C36.0918 25.7038 35.693 25.305 35.693 24.8148ZM45.2415 34.4492C44.4765 34.4489 43.7368 34.175 43.1561 33.6769C42.9438 33.4945 42.6731 33.3943 42.3932 33.3946C42.1133 33.3944 41.8426 33.4946 41.6303 33.6769C41.0496 34.175 40.3099 34.4489 39.5448 34.4492C37.7767 34.4492 36.3382 33.0107 36.3382 31.2426C36.3382 29.9023 37.1833 28.6919 38.4409 28.2307C38.6472 28.1551 38.8281 28.023 38.9629 27.8495C39.0977 27.676 39.181 27.4681 39.2033 27.2495C39.2362 26.9273 39.3176 26.6118 39.4447 26.3139C39.4865 26.2346 39.5256 26.1537 39.5608 26.0707C39.8716 25.4851 40.3571 25.0108 40.9498 24.7136C41.0008 24.6912 41.0511 24.6676 41.1011 24.6428C41.5085 24.4648 41.9485 24.3731 42.3932 24.3737C42.8513 24.3737 43.2875 24.4692 43.6828 24.6417C43.7327 24.6665 43.7831 24.6899 43.8341 24.7123C44.4279 25.0094 44.9143 25.4843 45.2256 26.0707C45.2608 26.1537 45.2999 26.2346 45.3416 26.3139C45.4688 26.6118 45.5502 26.9273 45.583 27.2495C45.6053 27.4681 45.6886 27.676 45.8235 27.8495C45.9583 28.023 46.1391 28.1551 46.3454 28.2307C47.6031 28.692 48.4481 29.9023 48.4481 31.2426C48.4481 33.0106 47.0097 34.4492 45.2415 34.4492ZM48.2045 25.7038C47.8853 25.7038 47.6056 25.5341 47.4488 25.2808C47.4216 25.2208 47.3933 25.1612 47.364 25.1022C47.3321 25.0097 47.3157 24.9126 47.3155 24.8148C47.3155 24.3245 47.7143 23.9257 48.2046 23.9257C48.6948 23.9257 49.0936 24.3245 49.0936 24.8148C49.0935 25.3049 48.6947 25.7038 48.2045 25.7038Z" fill="#F1CDB3">
<path d="M56.0193 39.7758C56.0043 39.7007 55.9819 39.6273 55.9526 39.5566C55.9234 39.4857 55.8873 39.4178 55.8448 39.3539C55.8026 39.2897 55.7539 39.23 55.6995 39.1758C55.6452 39.1214 55.5856 39.0727 55.5214 39.0305C55.3933 38.9457 55.25 38.8864 55.0995 38.8559C54.9487 38.8254 54.7933 38.8254 54.6425 38.8559C54.5675 38.8712 54.4936 38.8934 54.4221 38.9227C54.3518 38.952 54.2839 38.9884 54.2206 39.0305C54.1561 39.0727 54.0964 39.1219 54.0425 39.1758C53.9884 39.2297 53.9392 39.2895 53.896 39.3539C53.8538 39.4172 53.8173 39.4852 53.7893 39.5566C53.76 39.627 53.7366 39.7008 53.7225 39.7758C53.7073 39.8508 53.6991 39.9281 53.6991 40.0043C53.6991 40.0803 53.7073 40.1578 53.7225 40.234C53.7366 40.3078 53.76 40.3816 53.7893 40.4531C53.8186 40.5234 53.855 40.5914 53.8971 40.6547C53.9392 40.7191 53.9884 40.7789 54.0425 40.8328C54.0964 40.8867 54.1561 40.9359 54.2206 40.9793C54.2839 41.0215 54.3518 41.0566 54.4221 41.0859C54.4936 41.1152 54.5675 41.1387 54.6425 41.1527C54.7176 41.168 54.7949 41.1762 54.871 41.1762C54.9471 41.1762 55.0246 41.168 55.0995 41.1527C55.1745 41.1387 55.2483 41.1152 55.3186 41.0859C55.3901 41.0566 55.4581 41.0215 55.5214 40.9793C55.5859 40.9359 55.6457 40.8867 55.6995 40.8328C55.7534 40.7789 55.8026 40.7191 55.8448 40.6547C55.8869 40.5914 55.9233 40.5234 55.9526 40.4531C55.9819 40.3816 56.0041 40.3078 56.0193 40.234C56.0346 40.1578 56.0427 40.0803 56.0427 40.0043C56.0427 39.9281 56.0346 39.8508 56.0193 39.7758Z" fill="#F1CDB3">
<path d="M42.3932 0C41.7461 0 41.2213 0.524648 41.2213 1.17188V3.13359C41.2213 3.78082 41.7461 4.30547 42.3932 4.30547C43.0404 4.30547 43.565 3.7807 43.565 3.13359V1.17188C43.565 0.524648 43.0404 0 42.3932 0Z" fill="#F1CDB3">
<path d="M37.4562 4.55659L35.8205 3.27234C35.6995 3.1773 35.5609 3.10703 35.4127 3.06555C35.2645 3.02407 35.1096 3.01218 34.9568 3.03057C34.804 3.04896 34.6563 3.09727 34.5222 3.17273C34.3881 3.24819 34.2701 3.34934 34.1751 3.47038C33.7755 3.97944 33.8642 4.71608 34.3731 5.11569L36.0088 6.39995C36.2149 6.56221 36.4695 6.65035 36.7318 6.65015C36.9095 6.65039 37.0849 6.61017 37.2447 6.53253C37.4046 6.45488 37.5446 6.34186 37.6543 6.20202C38.054 5.69284 37.9653 4.9562 37.4562 4.55659Z" fill="#F1CDB3">
<path d="M50.6113 3.47021C50.2117 2.96115 49.4752 2.87244 48.9659 3.27216L47.3302 4.55642C46.8211 4.95603 46.7324 5.69267 47.1321 6.20185C47.2417 6.34177 47.3818 6.45487 47.5416 6.53254C47.7015 6.61021 47.8769 6.65042 48.0546 6.6501C48.3169 6.65028 48.5716 6.56214 48.7776 6.3999L50.4133 5.11564C50.9224 4.71603 51.0111 3.97939 50.6113 3.47021Z" fill="#F1CDB3">
</svg>
